<svg xmlns="http://www.w3.org/2000/svg" width="34" height="34" viewBox="0 0 24 24" fill="#7c248f"><path d="M20 0a4 4 0 0 1 4 4v16a4 4 0 0 1-4 4H4a4 4 0 0 1-4-4V4a4 4 0 0 1 4-4h16zm-6.19 8.5c-.44 0-.87.09-1.26.24-.14.06-.18.11-.19.23v6.3c0 .11.1.21.22.23h5.45c1.09 0 1.97-.89 1.97-1.98a1.98 1.98 0 0 0-2.73-1.83 3.48 3.48 0 0 0-3.46-3.19zm-2.52.85a.2.2 0 0 0-.2.2l-.08 4.1.08 1.64c0 .11.09.2.2.2a.2.2 0 0 0 .2-.14v-.06l.09-1.64-.09-4.1a.2.2 0 0 0-.2-.2zm-.67.67a.2.2 0 0 0-.2.19l-.08 3.44.09 1.65c0 .1.08.2.19.2.08 0 .15-.06.17-.14l.01-.06.1-1.65-.1-3.44a.2.2 0 0 0-.18-.2zm-2.65.22a.14.14 0 0 0-.14.13l-.11 3.28.11 1.7c0 .08.06.14.14.14.05 0 .1-.04.12-.1l.01-.03.13-1.71-.13-3.28a.14.14 0 0 0-.13-.13zm1.31-.42a.16.16 0 0 0-.16.16l-.1 3.67.1 1.68c0 .09.07.16.16.16.07 0 .13-.04.15-.11l.01-.05.12-1.68-.12-3.67c0-.09-.07-.16-.16-.16zm.67.08c-.1 0-.18.08-.18.17l-.1 3.58.1 1.66c0 .1.08.18.18.18.07 0 .14-.05.16-.12l.01-.06.1-1.66-.1-3.58c0-.1-.08-.17-.17-.17zm-2.63.96a.12.12 0 0 0-.12.12l-.13 2.67.13 1.72c0 .06.05.12.12.12.05 0 .1-.04.11-.08v-.04l.15-1.72-.14-2.67a.12.12 0 0 0-.12-.12zm1.3-.9a.15.15 0 0 0-.15.14l-.1 3.55.1 1.69c0 .08.07.15.15.15.07 0 .12-.04.14-.1l.01-.05.12-1.7-.12-3.54a.15.15 0 0 0-.15-.15zm3.34-1c-.12 0-.21.1-.21.22l-.1 4.47.1 1.62c0 .12.1.22.21.22.1 0 .18-.07.21-.16v-.06l.1-1.62-.1-4.47c0-.12-.09-.22-.2-.22zM6.67 11.9c-.05 0-.1.05-.1.1l-.14 1.64.14 1.73c0 .06.05.1.1.1a.1.1 0 0 0 .1-.06l.01-.04.15-1.73-.15-1.63c0-.06-.05-.1-.1-.1zm-.63-.11c-.05 0-.1.04-.1.09l-.14 1.76.14 1.71c0 .06.05.1.1.1a.1.1 0 0 0 .08-.06v-.04l.17-1.7-.16-1.77c0-.05-.05-.1-.1-.1zm-.64.06c-.04 0-.07.03-.08.08l-.15 1.72.15 1.65c0 .05.04.08.08.08s.08-.03.08-.08l.17-1.65-.17-1.72c0-.05-.04-.08-.08-.08zm-.63.28c-.03 0-.06.03-.06.07l-.16 1.44.16 1.42c0 .04.03.07.06.07.04 0 .06-.03.07-.07l.18-1.42-.18-1.44c0-.04-.03-.07-.07-.07zm-.59.56c-.03 0-.06.02-.06.06l-.12.9.12.87c0 .04.03.07.06.07s.06-.03.07-.06l.13-.89-.13-.9c-.01-.03-.04-.05-.07-.05z"/></svg>